<svg id="Layer_1" data-name="Layer 1" xmlns="http://www.w3.org/2000/svg" viewBox="0 0 233.44 44.58"><defs><style>.cls-1{fill:#98c25f;}.cls-1,.cls-2,.cls-3,.cls-4,.cls-5,.cls-6{fill-rule:evenodd;}.cls-2{fill:#f2ae39;}.cls-3{fill:#0089c7;}.cls-4{fill:#df4145;}.cls-5{fill:#00adeb;}.cls-6{fill:#b9bec5;}.cls-7{fill:#007dbb;}</style></defs><path class="cls-1" d="M465.45,175.66a6.93,6.93,0,1,1,7,6.91A6.93,6.93,0,0,1,465.45,175.66Z" transform="translate(-314.61 -138)"/><path class="cls-2" d="M493.6,182.57a6.93,6.93,0,1,1,6.91-7A6.93,6.93,0,0,1,493.6,182.57Z" transform="translate(-314.61 -138)"/><path class="cls-3" d="M521.71,175.65a6.93,6.93,0,1,1-7-6.94A6.92,6.92,0,0,1,521.71,175.65Z" transform="translate(-314.61 -138)"/><path class="cls-4" d="M542.92,175.6a6.93,6.93,0,1,1-7-6.88A6.93,6.93,0,0,1,542.92,175.6Z" transform="translate(-314.61 -138)"/><path class="cls-5" d="M430,182.57a6.93,6.93,0,1,1,6.91-7A6.93,6.93,0,0,1,430,182.57Z" transform="translate(-314.61 -138)"/><path class="cls-6" d="M458.11,175.61a6.94,6.94,0,1,1-7-6.9A6.89,6.89,0,0,1,458.11,175.61Z" transform="translate(-314.61 -138)"/><path class="cls-7" d="M314.61,156.71l.44-.68a6.16,6.16,0,0,0,.34-.68c.09-.23.18-.49.28-.78s.19-.64.31-1.06l3.35-13a4.65,4.65,0,0,0,.11-.71,6.9,6.9,0,0,0,.06-.77c0-.17,0-.33,0-.47a3.3,3.3,0,0,0-.15-.51h13.89c.57,0,1,0,1.44,0s.71.06,1,.1a3.21,3.21,0,0,1,.7.21c.19.1.39.21.6.34A3.63,3.63,0,0,1,338,140a3.48,3.48,0,0,1,.41,1.62,7,7,0,0,1-.06.83,4.34,4.34,0,0,1-.14.8L336,152c-.13.54-.25,1-.37,1.35a7,7,0,0,1-.36,1,3.26,3.26,0,0,1-.46.7c-.18.2-.39.4-.63.63s-.43.37-.6.49a2.71,2.71,0,0,1-.56.29,3.17,3.17,0,0,1-.69.17,7.51,7.51,0,0,1-.92.08l-.76,0h-16Zm12.06-3.1a8.31,8.31,0,0,0,1-.05,1,1,0,0,0,.58-.25,1.47,1.47,0,0,0,.37-.66c.09-.29.21-.7.36-1.22l2.24-8.72a4.05,4.05,0,0,0,.11-.46,1.5,1.5,0,0,0,0-.29.73.73,0,0,0-.29-.66,2.28,2.28,0,0,0-1.08-.18h-3.61l-3.22,12.49Z" transform="translate(-314.61 -138)"/><path class="cls-7" d="M353.65,143a6.14,6.14,0,0,1,2.08.29,3,3,0,0,1,1.33,1,3.51,3.51,0,0,1,.53,1,3.87,3.87,0,0,1,.2,1.23,4.06,4.06,0,0,1-.06.67,6.33,6.33,0,0,1-.19.87l-1.29,5.05a7,7,0,0,1-.3,1,4.29,4.29,0,0,1-.33.71,3.49,3.49,0,0,1-.4.56,3.65,3.65,0,0,1-.57.51,3.48,3.48,0,0,1-.64.38,4.21,4.21,0,0,1-.8.25,7.24,7.24,0,0,1-1,.14c-.39,0-.86,0-1.4,0h-8.28c-.54,0-1,0-1.33,0a5.83,5.83,0,0,1-.87-.1,2,2,0,0,1-.6-.2,3,3,0,0,1-.53-.4,3.12,3.12,0,0,1-.92-1.19,3.57,3.57,0,0,1-.31-1.5,3,3,0,0,1,0-.55c0-.15.07-.37.13-.63l1.56-6a4.32,4.32,0,0,1,.77-1.6,3.46,3.46,0,0,1,1.3-1,4.62,4.62,0,0,1,1.42-.38,17.85,17.85,0,0,1,2.19-.1Zm-8.93,9.49c-.08.32-.12.52-.13.6a1.7,1.7,0,0,0,0,.21c0,.5.43.76,1.28.76h2a5.06,5.06,0,0,0,.74-.05,1.06,1.06,0,0,0,.49-.17.83.83,0,0,0,.3-.34,2.65,2.65,0,0,0,.2-.62l1.36-5.3a4.43,4.43,0,0,0,.17-.62,2.16,2.16,0,0,0,0-.35.77.77,0,0,0-.34-.7,2,2,0,0,0-1.09-.23H348a5.58,5.58,0,0,0-.8.06,1.73,1.73,0,0,0-.53.18.91.91,0,0,0-.33.37,2,2,0,0,0-.21.6Z" transform="translate(-314.61 -138)"/><path class="cls-7" d="M378.69,143l-1.17,8.22,3.16-5c.25-.39.45-.73.62-1a7.73,7.73,0,0,0,.41-.81,4.73,4.73,0,0,0,.22-.71c0-.23.08-.46.1-.7h4.25l-.45.39a2.6,2.6,0,0,0-.36.38c-.11.14-.23.3-.36.49s-.29.42-.48.72L377,156.71h-6.85l1.46-10.47-6.84,10.47h-6.93l1.56-10.89c.06-.42.1-.72.12-.88s0-.33,0-.52a5.22,5.22,0,0,0,0-.74,6.7,6.7,0,0,0-.15-.68h7.52a4.56,4.56,0,0,0-.5,1.09,14,14,0,0,0-.39,1.76l-.76,5.37,5.35-8.22Z" transform="translate(-314.61 -138)"/><path class="cls-7" d="M393.08,144.23a5.37,5.37,0,0,1,.4-.66,1.4,1.4,0,0,1,.44-.37,1.52,1.52,0,0,1,.59-.19,6.85,6.85,0,0,1,.87,0h4.53a3.7,3.7,0,0,1,3,1.18,3.57,3.57,0,0,1,.62,1.1,3.34,3.34,0,0,1,.24,1.25,7.54,7.54,0,0,1-.09,1c-.07.42-.15.81-.24,1.16L402,154.24a9.76,9.76,0,0,0-.17,1.49,3.23,3.23,0,0,0,0,.48,3,3,0,0,0,.14.5h-7.89c.17-.24.31-.47.45-.68a5.08,5.08,0,0,0,.33-.66c.09-.23.19-.48.28-.77s.2-.65.31-1.08l1.57-6.07c.05-.23.09-.4.13-.54a2.84,2.84,0,0,1,.06-.29.56.56,0,0,0,0-.15v-.11c0-.36-.21-.58-.64-.68a1.06,1.06,0,0,0-.2,0h-2.07a1.86,1.86,0,0,0-1.13.26,2,2,0,0,0-.55,1.06l-1.87,7.28a5.68,5.68,0,0,0-.12.7c0,.32-.05.58-.05.78a3.23,3.23,0,0,0,0,.48,1.83,1.83,0,0,0,.14.5h-7.9c.17-.24.32-.47.45-.68a6,6,0,0,0,.34-.67c.09-.22.18-.48.28-.77s.19-.65.31-1.08l2.06-8.07a4.4,4.4,0,0,0,.15-.73c0-.3,0-.55,0-.76a3.23,3.23,0,0,0,0-.46,1.73,1.73,0,0,0-.17-.52h7.09Z" transform="translate(-314.61 -138)"/><path class="cls-7" d="M411.53,154.25a5.68,5.68,0,0,0-.12.7c0,.32-.05.58-.05.78s0,.35,0,.48a2.4,2.4,0,0,0,.15.5h-7.9c.17-.24.32-.47.45-.68a6.89,6.89,0,0,0,.34-.66c.09-.23.18-.48.28-.77s.19-.65.3-1.08l3.36-13a5.26,5.26,0,0,0,.12-.71c0-.32,0-.58,0-.77a3.33,3.33,0,0,0,0-.46,2.41,2.41,0,0,0-.14-.52h7.36Z" transform="translate(-314.61 -138)"/><path class="cls-7" d="M429.94,143a6.2,6.2,0,0,1,2.09.29,3.11,3.11,0,0,1,1.33,1,3.51,3.51,0,0,1,.53,1,3.87,3.87,0,0,1,.2,1.23,5.54,5.54,0,0,1-.06.67,8.58,8.58,0,0,1-.2.87l-1.28,5.05c-.1.37-.2.7-.3,1a4.29,4.29,0,0,1-.33.71,3.52,3.52,0,0,1-.41.56,4.06,4.06,0,0,1-.56.51,3.85,3.85,0,0,1-.64.38,4.73,4.73,0,0,1-.8.25,7.44,7.44,0,0,1-1.05.14c-.39,0-.86,0-1.4,0h-8.29c-.54,0-1,0-1.33,0a5.84,5.84,0,0,1-.86-.1,1.84,1.84,0,0,1-.6-.2,3.39,3.39,0,0,1-.54-.4,3.32,3.32,0,0,1-.92-1.19,3.57,3.57,0,0,1-.31-1.5,4.29,4.29,0,0,1,0-.55c0-.15.07-.37.13-.63l1.57-6a4.31,4.31,0,0,1,.76-1.6,3.49,3.49,0,0,1,1.31-1,4.56,4.56,0,0,1,1.41-.38,17.93,17.93,0,0,1,2.2-.1ZM421,152.46q-.11.48-.12.6a2.06,2.06,0,0,0,0,.21c0,.5.43.76,1.29.76h2a4.81,4.81,0,0,0,.73-.05,1,1,0,0,0,.49-.17.93.93,0,0,0,.31-.34,3.32,3.32,0,0,0,.19-.62l1.37-5.3a4,4,0,0,0,.16-.62,2.21,2.21,0,0,0,0-.35.79.79,0,0,0-.34-.7,2,2,0,0,0-1.09-.23h-1.67a5.54,5.54,0,0,0-.79.06,1.56,1.56,0,0,0-.53.18.94.94,0,0,0-.34.37,2.76,2.76,0,0,0-.21.6Z" transform="translate(-314.61 -138)"/><path class="cls-7" d="M450.15,143a5,5,0,0,1,1.43.17,3.1,3.1,0,0,1,1.06.64,3.93,3.93,0,0,1,.85,1.22,3.38,3.38,0,0,1,.33,1.42,6.78,6.78,0,0,1-.08.87,6.45,6.45,0,0,1-.2,1L452,154.24a4.4,4.4,0,0,0-.15.73c0,.3-.05.55-.05.76a3.23,3.23,0,0,0,0,.46,1.73,1.73,0,0,0,.17.52h-6.64a3.26,3.26,0,0,1-.14-.49,3,3,0,0,1,0-.46v-.39a2.27,2.27,0,0,1-1,1,3.68,3.68,0,0,1-1.65.31h-4a6.05,6.05,0,0,1-1.71-.21,3.46,3.46,0,0,1-1.26-.69,3.09,3.09,0,0,1-.88-1.1,3,3,0,0,1-.29-1.33,4.7,4.7,0,0,1,0-.62,4.27,4.27,0,0,1,.15-.67l.34-1.31a6.48,6.48,0,0,1,.66-1.7,3,3,0,0,1,1-1,2.67,2.67,0,0,1,.5-.26,2.86,2.86,0,0,1,.58-.16l.72-.08c.27,0,.61,0,1,0h7.06a.59.59,0,0,0,.3-.16,1.15,1.15,0,0,0,.25-.4,1.38,1.38,0,0,0,.11-.57.57.57,0,0,0-.32-.58,2.89,2.89,0,0,0-1.13-.16H439a10.35,10.35,0,0,0-1.67.12,4.54,4.54,0,0,0-1.24.42l1.48-3.22ZM443,150.16a5.58,5.58,0,0,0-.67,0,1,1,0,0,0-.42.16.72.72,0,0,0-.27.34,4.1,4.1,0,0,0-.18.58l-.36,1.4c-.06.21-.09.33-.1.38a.9.9,0,0,0,0,.18.69.69,0,0,0,.28.64,2.11,2.11,0,0,0,1,.17H444l.7,0a1.1,1.1,0,0,0,.41-.13.8.8,0,0,0,.25-.29,3.37,3.37,0,0,0,.18-.54l.75-2.91Z" transform="translate(-314.61 -138)"/><path class="cls-7" d="M472.09,154.22a6.41,6.41,0,0,0-.11.71,6.9,6.9,0,0,0-.06.77,3.13,3.13,0,0,0,0,.46,1.64,1.64,0,0,0,.17.52h-7.05v-1.17a3.25,3.25,0,0,1-.45.58,1.82,1.82,0,0,1-.51.36,2.61,2.61,0,0,1-.66.18,7.35,7.35,0,0,1-.88.05h-3.8a6.43,6.43,0,0,1-1.92-.22,3.5,3.5,0,0,1-1.3-.79,2.88,2.88,0,0,1-1-2.24v-.34a1.69,1.69,0,0,1,0-.3,4.11,4.11,0,0,1,.1-.43c0-.16.1-.39.18-.67l1.4-5.47a4.26,4.26,0,0,1,1.51-2.49,4.86,4.86,0,0,1,3-.79h4.92a3.14,3.14,0,0,1,1.47.28,2,2,0,0,1,.8,1.08l1-3.84a4.34,4.34,0,0,0,.14-.72c0-.32.05-.57.05-.76s0-.32,0-.46a2.2,2.2,0,0,0-.17-.52h7.36Zm-7.95-.19a2,2,0,0,0,1.12-.24,1.81,1.81,0,0,0,.5-1l1.35-5.2c0-.15.07-.35.11-.59a3.65,3.65,0,0,0,.06-.53q0-.84-1.26-.84h-1.6a4.25,4.25,0,0,0-.69.05.8.8,0,0,0-.43.26,1.7,1.7,0,0,0-.29.54c-.08.24-.18.56-.3,1l-1.23,4.78-.14.45a1.93,1.93,0,0,0-.11.62.6.6,0,0,0,.32.56,2.47,2.47,0,0,0,1.05.17Z" transform="translate(-314.61 -138)"/><path class="cls-7" d="M479.4,153.94l-.72,2.77h-4l.72-2.77Z" transform="translate(-314.61 -138)"/><path class="cls-7" d="M490.5,150.65a1.6,1.6,0,0,0-.52-.19,2.94,2.94,0,0,0-.71-.07h-2.62a2,2,0,0,0-.46,0,.77.77,0,0,0-.31.12.73.73,0,0,0-.19.23,2.88,2.88,0,0,0-.13.41l-.78,3.06a1.75,1.75,0,0,0-.07.26.76.76,0,0,0,0,.15.41.41,0,0,0,.24.4,2,2,0,0,0,.82.12H488a8,8,0,0,0,.81,0,2.12,2.12,0,0,0,.56-.16l-.7,1.73h-5.21a5.08,5.08,0,0,1-1.16-.1,1.9,1.9,0,0,1-.75-.38,1.68,1.68,0,0,1-.68-1.36,2.34,2.34,0,0,1,0-.38c0-.12.06-.29.11-.52l.85-3.27a2.45,2.45,0,0,1,1-1.51,3.18,3.18,0,0,1,.32-.16,1.52,1.52,0,0,1,.38-.11l.49,0h6.66Z" transform="translate(-314.61 -138)"/><path class="cls-7" d="M499.25,148.86a3.45,3.45,0,0,1,1.19.17,1.69,1.69,0,0,1,.76.58,2.2,2.2,0,0,1,.31.59,2.44,2.44,0,0,1,.1.71,2.75,2.75,0,0,1,0,.39c0,.13-.06.3-.12.49l-.73,2.89a4.53,4.53,0,0,1-.17.55,3.14,3.14,0,0,1-.19.41,2.62,2.62,0,0,1-.23.32,3.19,3.19,0,0,1-.32.29,2,2,0,0,1-.37.21,2.26,2.26,0,0,1-.46.15,4.38,4.38,0,0,1-.6.08l-.8,0h-5.49a4.92,4.92,0,0,1-.5-.06,1.5,1.5,0,0,1-.34-.12,1.2,1.2,0,0,1-.3-.23,1.66,1.66,0,0,1-.53-.68,2,2,0,0,1-.18-.85,2.54,2.54,0,0,1,0-.31l.08-.36.89-3.45a2.41,2.41,0,0,1,.44-.91,2,2,0,0,1,.75-.6,2.68,2.68,0,0,1,.8-.21,10.35,10.35,0,0,1,1.26-.06Zm-5.1,5.42a1.66,1.66,0,0,0-.07.35.53.53,0,0,0,0,.12c0,.28.24.43.73.43h1.13a2.42,2.42,0,0,0,.42,0,.58.58,0,0,0,.28-.09.47.47,0,0,0,.17-.2,1.56,1.56,0,0,0,.12-.35l.78-3a3,3,0,0,0,.09-.36.71.71,0,0,0,0-.2.47.47,0,0,0-.19-.4,1.19,1.19,0,0,0-.62-.13h-1a1.92,1.92,0,0,0-.45,0,.81.81,0,0,0-.3.1.43.43,0,0,0-.19.21,1.62,1.62,0,0,0-.13.34Z" transform="translate(-314.61 -138)"/><path class="cls-7" d="M507.15,149.61a2.92,2.92,0,0,1,.26-.39,1.23,1.23,0,0,1,.28-.23,1.41,1.41,0,0,1,.38-.11l.54,0h3.87a1,1,0,0,1,1.15.76,1.4,1.4,0,0,1,.45-.61,1.43,1.43,0,0,1,.75-.15h2.8a2.73,2.73,0,0,1,.87.12,1.94,1.94,0,0,1,.66.45,2.45,2.45,0,0,1,.43.71,2.14,2.14,0,0,1,.16.82.91.91,0,0,1,0,.17,1.1,1.1,0,0,1,0,.18,1.39,1.39,0,0,1-.05.23c0,.08,0,.19-.08.33l-.88,3.43a3.34,3.34,0,0,0-.08.43,3.44,3.44,0,0,0,0,.42,2.18,2.18,0,0,0,0,.27.83.83,0,0,0,.1.29h-4.52c.09-.14.18-.27.25-.39s.13-.25.19-.38.11-.29.16-.45.12-.37.18-.6l.89-3.49a1.77,1.77,0,0,0,.06-.28.86.86,0,0,0,0-.22c0-.34-.24-.51-.75-.51h-.94a.89.89,0,0,0-.62.16,1.3,1.3,0,0,0-.31.63l-1.05,4.12a2.87,2.87,0,0,0-.08.42,2.33,2.33,0,0,0,0,.43,2.1,2.1,0,0,0,0,.27.83.83,0,0,0,.1.29h-4.53c.1-.14.19-.27.26-.39a2.69,2.69,0,0,0,.19-.38c.05-.13.11-.27.16-.44s.11-.36.18-.61l.89-3.42c0-.13.05-.23.07-.29a.49.49,0,0,1,0-.15.34.34,0,0,0,0-.09v-.07a.43.43,0,0,0-.17-.35.84.84,0,0,0-.47-.13h-1a.86.86,0,0,0-1.05.85l-1.06,4.06a4,4,0,0,0-.06.4,4.37,4.37,0,0,0,0,.45,2.1,2.1,0,0,0,0,.27,2.65,2.65,0,0,0,.08.29h-4.51c.1-.14.19-.27.26-.39a2.69,2.69,0,0,0,.19-.38c.05-.13.11-.27.16-.44s.11-.37.18-.62l1.18-4.61a2.87,2.87,0,0,0,.08-.42,3.73,3.73,0,0,0,0-.43,1.06,1.06,0,0,0,0-.26,1.21,1.21,0,0,0-.09-.3h4.06Z" transform="translate(-314.61 -138)"/><path class="cls-7" d="M524.93,153.94l-.72,2.77h-4l.71-2.77Z" transform="translate(-314.61 -138)"/><path class="cls-7" d="M535.11,150.14a2.61,2.61,0,0,0,.47-1.27h2.32c-.08.09-.16.16-.22.22a2,2,0,0,0-.19.21c-.07.08-.14.18-.22.29L537,150l-4.5,6.67h-4.19l-.93-6.41c0-.2-.05-.37-.08-.5a2.56,2.56,0,0,0-.07-.36,2.29,2.29,0,0,0-.09-.28l-.13-.29h4.36a1.92,1.92,0,0,0-.2.5,2.66,2.66,0,0,0,0,.53,5.58,5.58,0,0,0,0,.72l.59,4.59Z" transform="translate(-314.61 -138)"/><path class="cls-7" d="M542,149.58a1.85,1.85,0,0,1,.23-.37.78.78,0,0,1,.25-.23,1.13,1.13,0,0,1,.34-.1l.49,0h2.59a2.12,2.12,0,0,1,1.7.67,2.45,2.45,0,0,1,.36.63,2,2,0,0,1,.14.72,3.66,3.66,0,0,1-.06.58,5.62,5.62,0,0,1-.14.67L547,155.3a3.45,3.45,0,0,0-.07.4,4.21,4.21,0,0,0,0,.45,1.1,1.1,0,0,0,0,.27,1,1,0,0,0,.08.29h-4.51c.09-.14.18-.27.25-.39a1.93,1.93,0,0,0,.19-.38,3.16,3.16,0,0,0,.16-.44,5.24,5.24,0,0,0,.18-.61l.89-3.47c0-.13.06-.23.08-.3s0-.14,0-.17a.34.34,0,0,0,0-.09v-.07c0-.2-.12-.33-.36-.38l-.11,0h-1.19a1.05,1.05,0,0,0-.65.15,1.21,1.21,0,0,0-.31.6l-1.07,4.16a4,4,0,0,0-.06.4,2.65,2.65,0,0,0,0,.45,2.1,2.1,0,0,0,0,.27,1.43,1.43,0,0,0,.08.29h-4.51c.1-.14.18-.27.26-.39s.13-.25.19-.38l.16-.44c0-.16.11-.37.17-.62l1.19-4.61c0-.11,0-.25.08-.42a3.73,3.73,0,0,0,0-.43,2,2,0,0,0,0-.26,1.21,1.21,0,0,0-.09-.3h4Z" transform="translate(-314.61 -138)"/></svg>